<svg xmlns="http://www.w3.org/2000/svg" xmlns:xlink="http://www.w3.org/1999/xlink" width="650" height="650" viewBox="0 0 650 650" fill="none"><defs><rect id="path_0" x="0" y="0" width="650" height="650" /><linearGradient id="linear_0" x1="28.819%" y1="12.219%" x2="74.653%" y2="87.153%" gradientUnits="objectBoundingBox"><stop offset="0" stop-color="#00BCFF" stop-opacity="1" /><stop offset="1" stop-color="#424BF7" stop-opacity="1" /></linearGradient><linearGradient id="linear_1" x1="71.104%" y1="12.739%" x2="27.573999999999998%" y2="88.627%" gradientUnits="objectBoundingBox"><stop offset="0" stop-color="#FFF833" stop-opacity="1" /><stop offset="1" stop-color="#FFAF0F" stop-opacity="1" /></linearGradient></defs><g opacity="1" transform="translate(0 0)  rotate(0 325 325)"><mask id="bg-mask-0" fill="white"><use xlink:href="#path_0"></use></mask><g mask="url(#bg-mask-0)" ><path id="减去顶层" fill-rule="evenodd" fill="url(#linear_0)" transform="translate(65 34)  rotate(0 259.80999755859375 290.7200012207031)" opacity="1" d="M30 123.4L229.81 8.04C248.37 -2.68 271.25 -2.68 289.81 8.04L489.62 123.4C508.18 134.12 519.62 153.92 519.62 175.36L519.62 406.08C519.62 427.52 508.18 447.32 489.62 458.04L289.81 573.4C271.25 584.12 248.37 584.12 229.81 573.4L30 458.04C11.44 447.32 0 427.52 0 406.08L0 175.36C0 153.92 11.44 134.12 30 123.4Z M145 202.7L244.9 145.02C254.18 139.66 265.62 139.66 274.9 145.02L374.8 202.7C384.08 208.06 389.8 217.96 389.8 228.68L389.8 344.04C389.8 354.76 384.08 364.66 374.8 370.02L274.9 427.7C265.62 433.06 254.18 433.06 244.9 427.7L145 370.02C135.72 364.66 130 354.76 130 344.04L130 228.68C130 217.96 135.72 208.06 145 202.7Z " /><path id="多边形 2" fill-rule="evenodd" fill="url(#linear_1)" transform="translate(410.81 -43.98)  rotate(-59.82536030753823 89 174.75662177601586)" opacity="1" d="M74,17L16.93,81.71C13.7,85.36 11.92,90.07 11.92,94.94L11.92,254.57C11.92,259.44 13.7,264.15 16.93,267.8L74,332.51C77.8,336.82 83.26,339.28 89,339.28C94.74,339.28 100.2,336.82 104,332.51L161.07,267.8C164.3,264.15 166.08,259.44 166.08,254.57L166.08,94.94C166.08,90.07 164.3,85.36 161.07,81.71L104,17C100.2,12.69 94.74,10.23 89,10.23C83.26,10.23 77.8,12.69 74,17Z " /></g></g></svg>